<?xml version="1.0" encoding="UTF-8"?>
<svg version="1.1" xmlns="http://www.w3.org/2000/svg" width="861" height="796">
<path d="M0 0 C1.36478282 -0.00573832 1.36478282 -0.00573832 2.757137 -0.01159257 C5.78299087 -0.02184917 8.80865238 -0.01794442 11.83451843 -0.01396179 C14.0133939 -0.01831236 16.19226784 -0.02349665 18.37113953 -0.02944946 C24.27413391 -0.04281433 30.17706417 -0.04342087 36.08007073 -0.04088616 C41.01525834 -0.03981464 45.95043307 -0.04470451 50.88561791 -0.04949158 C62.53314538 -0.06057832 74.18064059 -0.06102901 85.82817078 -0.05497742 C97.82682378 -0.04893904 109.82533091 -0.06124714 121.82396919 -0.08254749 C132.14103322 -0.1001863 142.45806 -0.1061612 152.77513856 -0.10290974 C158.93017562 -0.10110022 165.08512901 -0.10369998 171.24015236 -0.11762428 C177.03094417 -0.13023489 182.82155369 -0.12822786 188.61234283 -0.11521339 C190.73104859 -0.11285503 192.8497673 -0.11555561 194.96845818 -0.12383652 C214.41101379 -0.19431612 230.97977374 2.07720237 245.53251648 16.26069641 C251.23707183 22.68571817 255.48475179 29.33053532 259.28251648 37.01069641 C260.32103892 39.05460221 261.36145088 41.09754887 262.40361023 43.13960266 C262.92423035 44.16456848 263.44485046 45.1895343 263.98124695 46.24555969 C266.35440149 50.8581594 268.843962 55.404027 271.34501648 59.94819641 C275.96057551 68.35761667 280.51181073 76.80000601 285.03251648 85.26069641 C289.49680781 93.61372756 293.98435778 101.95295241 298.53251648 110.26069641 C304.01026417 120.26900948 309.40044954 130.32345756 314.78161621 140.38389587 C315.09773361 140.97488068 315.41385101 141.56586548 315.73954773 142.17475891 C316.21402596 143.06184036 316.21402596 143.06184036 316.6980896 143.96684265 C319.98622435 150.11230208 323.28923963 156.24971387 326.59501648 162.38569641 C327.455224 163.98236145 327.455224 163.98236145 328.33280945 165.61128235 C329.48800453 167.75520478 330.64327778 169.89908509 331.79862976 172.04292297 C334.71121914 177.44815079 337.62173462 182.85449509 340.53251648 188.26069641 C341.39779968 189.86751282 341.39779968 189.86751282 342.28056335 191.50679016 C345.21053304 196.94769476 348.13977791 202.38898747 351.06767273 207.83100891 C356.70904037 218.31496646 362.35829057 228.79448076 368.03251648 239.26069641 C374.29992639 250.82105105 380.53599892 262.39813797 386.7664032 273.97846985 C389.68717216 279.40656191 392.60993923 284.83357782 395.53251648 290.26069641 C396.69919285 292.42735785 397.86585952 294.59402452 399.03251648 296.76069641 C399.89876648 298.36944641 399.89876648 298.36944641 400.78251648 300.01069641 C420.03251648 335.76069641 420.03251648 335.76069641 421.78300476 339.01167297 C422.94796615 341.17512626 424.11300503 343.33853782 425.27812195 345.50190735 C428.22152084 350.96739672 431.16350765 356.43363793 434.10282898 361.90132141 C439.53057563 371.99492128 444.96999951 382.08126646 450.47001648 392.13569641 C455.96669234 402.18655046 461.3784542 412.28223941 466.78147888 422.38362122 C467.25572296 423.27023437 467.25572296 423.27023437 467.73954773 424.17475891 C468.05587158 424.76615662 468.37219543 425.35755432 468.69810486 425.96687317 C471.98623712 432.11232105 475.28924502 438.24972388 478.59501648 444.38569641 C479.455224 445.98236145 479.455224 445.98236145 480.33280945 447.61128235 C481.48800453 449.75520478 482.64327778 451.89908509 483.79862976 454.04292297 C486.71121914 459.44815079 489.62173462 464.85449509 492.53251648 470.26069641 C493.10937195 471.33190735 493.68622742 472.40311829 494.28056335 473.50679016 C497.21053304 478.94769476 500.13977791 484.38898747 503.06767273 489.83100891 C503.65081238 490.91462708 504.23395203 491.99824524 504.83476257 493.11470032 C506.00329213 495.2861232 507.17158842 497.45767162 508.33964539 499.62934875 C511.22069739 504.9821894 514.11120352 510.32956001 517.02079773 515.66694641 C520.21171786 521.52068462 523.38273338 527.38472174 526.53251648 533.26069641 C526.95855164 534.05250305 527.38458679 534.84430969 527.8235321 535.66011047 C536.25207136 551.43430791 540.98025305 567.28423093 535.64701843 585.14131165 C531.77121687 595.98931089 524.83008337 605.61745326 518.40318298 615.08616638 C515.93983798 618.71635073 513.49648459 622.35995193 511.05204773 626.00288391 C510.57024048 626.72011124 510.08843323 627.43733856 509.59202576 628.17630005 C505.68732346 634.00050809 501.89160208 639.88807602 498.15751648 645.82319641 C492.97910806 654.03856044 487.65070578 662.13990371 482.24565125 670.2077179 C475.9795818 679.56821525 469.78202224 688.97281242 463.59501648 698.38569641 C463.06875671 699.18616394 462.54249695 699.98663147 462.00028992 700.81135559 C458.7332482 705.78076863 455.46714471 710.75079771 452.20133972 715.72102356 C447.74108464 722.5087938 443.27956588 729.29573253 438.81690979 736.08192444 C437.2796468 738.42000253 435.74308914 740.75854292 434.20658875 743.09712219 C431.32035433 747.48836803 428.42748231 751.87520351 425.53251648 756.26069641 C424.74087601 757.46189621 424.74087601 757.46189621 423.9332428 758.68736267 C422.32091627 761.13178788 420.70457589 763.57351358 419.08720398 766.01460266 C418.598181 766.75700195 418.10915802 767.49940125 417.60531616 768.26429749 C407.87338086 782.9159509 396.00243358 792.36023773 378.53251648 796.26069641 C360.65841883 797.86172443 345.46888312 794.4880259 331.34501648 783.01069641 C323.99299027 776.17867956 319.31062872 767.38034748 314.84501648 758.51069641 C313.79865504 756.46809863 312.75043096 754.4264541 311.70048523 752.38569641 C310.91037048 750.84848938 310.91037048 750.84848938 310.10429382 749.28022766 C307.69428488 744.65037512 305.1782084 740.08094643 302.65751648 735.51069641 C297.52625327 726.18235552 292.61733039 716.74864194 287.741745 707.28462219 C284.11680713 700.26600883 280.4085342 693.30347924 276.59501648 686.38569641 C271.58751099 677.29949694 266.80690228 668.10553731 262.0655365 658.87898254 C257.50897376 650.01738094 252.83150318 641.23348765 248.02079773 632.50679016 C243.44514339 624.17518426 239.09391835 615.73270625 234.74101257 607.28315735 C231.11628679 600.26505004 227.40827032 593.30300056 223.59501648 586.38569641 C218.58751099 577.29949694 213.80690228 568.10553731 209.0655365 558.87898254 C204.50897376 550.01738094 199.83150318 541.23348765 195.02079773 532.50679016 C190.44514339 524.17518426 186.09391835 515.73270625 181.74101257 507.28315735 C178.11628679 500.26505004 174.40827032 493.30300056 170.59501648 486.38569641 C165.92807308 477.91745234 161.45196935 469.35963122 157.03251648 460.76069641 C152.16815945 451.29959177 147.21825987 441.89586472 142.08891296 432.5749054 C138.35596877 425.78948544 134.69850152 418.96562282 131.0579071 412.13035583 C125.66017673 401.99986015 120.13882385 391.95226628 114.44682312 381.9835968 C109.84177739 373.8859878 105.44708368 365.68127798 101.07350159 357.45741272 C96.85761522 349.53530432 92.54863791 341.67694259 88.09501648 333.88569641 C82.64545644 324.34706149 77.45014344 314.68720464 72.30290222 304.9835968 C68.00742665 296.88599343 63.67078672 288.81790486 59.18803406 280.82197571 C55.74211234 274.66746294 52.38374782 268.46720008 49.03251648 262.26069641 C44.91381268 254.63758582 40.76443531 247.03429275 36.54545593 239.46626282 C32.58695215 232.36527982 28.64965443 225.25268177 24.72001648 218.13569641 C24.37581665 217.5124649 24.03161682 216.8892334 23.67698669 216.24711609 C18.48525748 206.84293411 13.3583008 197.40548924 8.26249695 187.94892883 C4.01295502 180.08866069 -0.38257674 172.31663302 -4.80415344 164.55220032 C-8.56866965 157.91684866 -12.15872314 151.2089299 -15.67280579 144.43843079 C-18.84442966 138.36206744 -22.19312065 132.39965671 -25.59248352 126.44819641 C-30.87080362 117.19442261 -35.95897635 107.84974266 -40.96748352 98.44819641 C-41.30668823 97.81239655 -41.64589294 97.17659668 -41.99537659 96.52153015 C-44.16938674 92.44322881 -46.32525625 88.35581346 -48.46748352 84.26069641 C-49.21711365 82.83370422 -49.21711365 82.83370422 -49.98188782 81.37788391 C-57.47885417 66.81250527 -58.44516079 51.85364756 -53.46748352 36.26069641 C-47.54143647 21.00872276 -36.21791586 9.98735795 -21.43623352 3.30366516 C-14.31633115 0.80233104 -7.5151009 -0.03408456 0 0 Z " fill="#4C12A1" transform="translate(56.46748352050781,-0.2606964111328125)"/>
<path d="M0 0 C6.42981826 5.65071772 11.85256706 11.74238889 17.0546875 18.52734375 C17.69792969 19.32011719 18.34117187 20.11289062 19.00390625 20.9296875 C41.94964429 50.39145663 50.29235495 88.9714192 46.10913086 125.59936523 C41.29103996 162.20667974 22.06146511 196.56683377 -6.9453125 219.52734375 C-33.26554966 239.1550711 -62.90184724 249.74844599 -95.8203125 249.77734375 C-96.51061554 249.77801849 -97.20091858 249.77869324 -97.91213989 249.77938843 C-136.69290091 249.71924927 -171.89236662 234.1005782 -199.5 206.99121094 C-224.25176352 181.92168829 -238.37903643 147.57277075 -239.9453125 112.52734375 C-239.9865625 111.625 -240.0278125 110.72265625 -240.0703125 109.79296875 C-240.93610335 70.61593286 -225.5227951 34.07663187 -199.01171875 5.62109375 C-195.80915017 2.37614714 -192.4977551 -0.61553159 -188.9453125 -3.47265625 C-187.67300781 -4.50132813 -187.67300781 -4.50132813 -186.375 -5.55078125 C-129.84290918 -49.6057621 -53.96078714 -45.30129743 0 0 Z " fill="#45E5B7" transform="translate(813.9453125,36.47265625)"/>
</svg>
